<svg xmlns="http://www.w3.org/2000/svg" width="256" height="256"><path fill-opacity=".016" d="M0 128.004v128.004l128.25-.254 128.25-.254.254-127.75L257.008 0H0v128.004m.485.496c0 70.4.119 99.053.265 63.672.146-35.38.146-92.98 0-128C.604 29.153.485 58.1.485 128.5" fill="#1976D2" fill-rule="evenodd"/><path fill-opacity=".195" d="M51.744 51.756 20 83.512v88l32.25 32.176 32.25 32.176 43.951.111 43.952.111 31.798-31.787L236 172.512V82.488l-31.256-31.244L173.488 20h-90L51.744 51.756M45.5 91.491c-.55.184-2.203.598-3.673.921-1.47.323-4.058 1.753-5.75 3.177-2.565 2.158-3.077 3.31-3.077 6.927 0 3.496.512 4.741 2.635 6.411 1.449 1.14 3.007 2.073 3.462 2.073.456 0 3.32.932 6.365 2.072 4.48 1.676 5.538 2.505 5.538 4.339 0 4.845-8.827 6.024-16.401 2.19-3.13-1.586-4.857-2.01-5.085-1.25-1.717 5.695-1.564 6.679 1.213 7.801 1.525.616 6.373 1.152 10.773 1.192 11.958.109 18.5-4.057 18.5-11.78 0-3.812-3.067-6.424-10.436-8.887-8.309-2.778-10.154-4.908-6.703-7.74 3.015-2.474 8.385-2.462 13.875.03l4.235 1.922.868-3.194c.477-1.757.704-3.496.505-3.864-.855-1.579-13.753-3.371-16.844-2.34m144.119 1.259c-.898 3.043-7.619 32.506-7.619 33.397 0 .469 1.702.853 3.781.853h3.782l3.853-16.75c2.119-9.213 4.066-17.312 4.326-18 .329-.872-.751-1.25-3.568-1.25-2.984 0-4.174.457-4.555 1.75M73.5 100.838c-3.423.567-4.046 1.058-4.316 3.412-.353 3.066-.141 3.144 4.82 1.765 4.17-1.158 9.375-.001 9.794 2.178.326 1.69-2.442 2.758-7.298 2.815-4.055.048-11.09 3.357-12.419 5.841-1.845 3.448-1.26 6.865 1.554 9.078 3.266 2.57 5.881 2.614 10.654.181 2.931-1.495 3.711-1.6 3.711-.5 0 .947 1.224 1.392 3.832 1.392h3.832l2.168-9.438C91.024 112.371 92 107.207 92 106.085c0-4.264-9.004-6.818-18.5-5.247m40.211 1.054c-2.931 1.495-3.711 1.6-3.711.5 0-.952-1.235-1.392-3.902-1.392h-3.902l-2.729 11.75c-1.501 6.463-2.943 12.313-3.205 13-.333.873.751 1.25 3.592 1.25 3.872 0 4.113-.182 4.987-3.75 3.521-14.377 3.658-14.722 6.315-15.996 5.787-2.774 7.209 1.072 4.344 11.746-2.093 7.799-2.035 8 2.336 8h3.837l1.829-8.25c1.006-4.537 2.193-8.986 2.637-9.885 1.102-2.23 5.676-3.264 7.552-1.706 1.613 1.338 1.442 3.466-1.135 14.145l-1.401 5.803 4.096-.303 4.095-.304 2.276-9.971c2.561-11.222 2.034-14.223-2.797-15.922-2.116-.744-3.73-.414-7.776 1.588-3.78 1.871-5.293 2.212-5.827 1.312-.882-1.485-4.599-3.507-6.445-3.507-.745 0-3.024.851-5.066 1.892m51.789-.385c-4.821 1.763-4.782 1.759-3.962.431.435-.704-.803-.957-3.666-.75l-4.323.312-3.617 15.5-3.618 15.5-59.157.258-59.157.258V138h201v-5h-75.038l.648-2.75c.933-3.959 1.646-4.405 5.107-3.199 3.969 1.384 10.107-.17 13.05-3.303 3.106-3.306 5.233-9.04 5.233-14.105 0-7.728-4.899-10.916-12.5-8.136m42.771.457c-8.597 3.902-12.114 16.193-6.298 22.009 3.125 3.125 9.582 4.392 15.905 3.123 3.001-.603 5.601-1.241 5.778-1.419.178-.178.61-1.755.96-3.506l.636-3.183-2.876 1.5c-4.114 2.145-11.65 1.971-13.721-.317-.91-1.006-1.655-2.581-1.655-3.5 0-1.449 1.315-1.671 9.893-1.671 10.633 0 11.107-.241 11.107-5.648 0-8.097-9.954-11.825-19.729-7.388m2.364 5.109c-1.449 1.139-2.635 2.489-2.635 3 0 .51 2.7.927 6 .927 5.111 0 6-.267 6-1.8 0-4.379-5.045-5.525-9.365-2.127m-50.013 1.177c-1.088 1.72-3.622 10.942-3.622 13.183 0 1.004 4.531 1.278 6.987.422 4.721-1.646 7.96-11.508 4.813-14.655-2.023-2.023-6.605-1.435-8.178 1.05m-86.233 7.73c-5.117 2.067-2.799 7.838 2.605 6.484 3.405-.853 4.7-2.084 5.257-4.995.422-2.207.141-2.462-2.64-2.406-1.711.035-4.061.448-5.222.917M30 154.435c0 2.439.429 5.564.954 6.944.879 2.312 1.429 2.503 7 2.424l6.046-.086v-6.859c0-6.191-.194-6.858-2-6.858-1.758 0-2 .667-2 5.5 0 5.134-.159 5.5-2.393 5.5-2.775 0-3.607-1.633-3.607-7.082 0-3.251-.34-3.918-2-3.918-1.699 0-2 .667-2 4.435m20.046-2.99c-2.325 2.801-.853 5.916 3.251 6.882 4.751 1.119 4.278 3.251-.656 2.953-2.637-.159-3.641.185-3.641 1.25 0 2.027 9.275 2.049 10.954.025 2.313-2.786.853-5.916-3.204-6.871-2.062-.485-3.75-1.302-3.75-1.815 0-1.618 3.033-2.175 5.564-1.022 2.135.973 2.436.865 2.436-.868 0-1.701-.684-1.979-4.878-1.979-3.033 0-5.331.546-6.076 1.445m16.527.125c-3.655 3.655-2.607 10.881 1.737 11.972 4.389 1.101 10.144.113 10.508-1.805.291-1.537.013-1.617-2.168-.623-2.976 1.355-7.197.509-8.008-1.605-.473-1.232.425-1.509 4.889-1.509 5.071 0 5.469-.171 5.469-2.345 0-1.29-.823-3.09-1.829-4-2.315-2.095-8.538-2.145-10.598-.085m24.323.61c.495 1.276 1.808 4.604 2.919 7.396 1.315 3.308 1.705 5.571 1.117 6.5-1.371 2.165-1.119 2.924.968 2.924 1.44 0 2.771-2.081 5.5-8.6 4.159-9.935 4.236-10.4 1.73-10.4-1.363 0-2.212 1.22-3.13 4.5-.693 2.475-1.553 4.5-1.911 4.5-.358 0-1.312-1.912-2.12-4.25-1.066-3.085-2.086-4.338-3.721-4.57-1.983-.281-2.144-.043-1.352 2m18.661.043c-.856 1.222-1.557 3.372-1.557 4.777 0 4.548 2.593 7 7.402 7 5.237 0 7.598-2.229 7.598-7.174 0-4.619-2.513-6.826-7.772-6.826-3.118 0-4.492.538-5.671 2.223M127 155.878c0 3.497.509 6.299 1.256 6.92.691.573 3.841 1.019 7 .991l5.744-.052v-6.869c0-6.201-.194-6.868-2-6.868-1.76 0-2 .667-2 5.566 0 5.483-.041 5.562-2.75 5.25-2.565-.295-2.77-.669-3.052-5.566-.255-4.433-.606-5.25-2.25-5.25-1.71 0-1.948.719-1.948 5.878M146 157c0 6.268.204 7 1.945 7 1.611 0 1.998-.816 2.25-4.75.279-4.35.537-4.777 3.055-5.066 1.943-.224 2.75-.884 2.75-2.25 0-2.199-1.958-2.54-3.925-.684-1.06 1-1.417 1-1.783 0-.252-.687-1.321-1.25-2.375-1.25-1.707 0-1.917.768-1.917 7m23.488-4.987c-4.296 4.747-.989 11.987 5.476 11.987 5.376 0 7.491-1.976 7.491-7 0-2.981-.556-4.6-1.919-5.597-2.885-2.11-8.886-1.779-11.048.61m17.886 4.977c1.81 5.949 2.462 6.991 4.38 7 1.829.008 2.48-.838 3.457-4.49.662-2.475 1.502-4.5 1.866-4.5.365 0 1.23 2.025 1.923 4.5 1.034 3.694 1.68 4.5 3.602 4.5 1.992 0 2.591-.86 4.006-5.75.915-3.162 1.875-6.312 2.135-7 .278-.737-.34-1.25-1.506-1.25-1.493 0-2.289 1.114-3.252 4.555-1.392 4.971-2.351 4.828-3.716-.555-.591-2.332-1.546-3.597-2.86-3.791-1.579-.233-2.214.614-3.187 4.25-.668 2.498-1.615 4.541-2.105 4.541-.489 0-1.194-2.025-1.565-4.5-.576-3.843-1.013-4.5-2.989-4.5h-2.314l2.125 6.99m25.626.152c0 6.191.194 6.858 2 6.858 1.76 0 2-.667 2-5.566 0-5.483.041-5.562 2.75-5.25 2.565.295 2.77.669 3.052 5.566.255 4.433.606 5.25 2.25 5.25 1.674 0 1.948-.712 1.948-5.066 0-7.824-.928-8.836-8.005-8.736l-5.995.085v6.859m-143.869-3.8c-1.392 1.677-.477 2.658 2.477 2.658 2.77 0 4.162-1.898 2.27-3.096-1.965-1.245-3.465-1.106-4.747.438m43.841.71c-1.435 2.682-.895 5.979 1.194 7.288 2.294 1.438 4.834-.802 4.834-4.262 0-4.8-4.003-6.81-6.028-3.026m60.228-.852c-1.776 1.776-1.511 7.467.382 8.193 2.674 1.026 3.432.701 4.418-1.893 1.835-4.827-1.671-9.429-4.8-6.3" fill="#1976D2" fill-rule="evenodd"/><path fill-opacity=".406" d="M52.244 51.256 21 82.512v90l31.256 31.244L83.512 235H173.427l31.286-31.229L236 172.542V83.488l-31.756-31.744L172.488 20h-89L52.244 51.256M189.919 90.25c-.045.138-1.979 8.35-4.299 18.25l-4.218 18 3.903.313c2.147.172 4.079.136 4.294-.079.45-.45 8.401-34.294 8.401-35.76 0-.807-7.827-1.508-8.081-.724M40.5 92.44c-6.671 2.476-9.787 8.038-7.541 13.461 1.252 3.022 4.677 5.129 11.97 7.362 5.503 1.685 7.242 3.994 4.827 6.41-2.435 2.435-10.277 2.122-15.661-.624-2.359-1.204-4.45-2.028-4.646-1.831-.197.196-.65 2.187-1.008 4.424l-.65 4.068 4.547 1.145C46.883 130.517 60 125.489 60 116.251c0-5.105-2.584-7.472-11.166-10.229-7.07-2.271-8.494-3.737-6.407-6.591 1.732-2.37 9.233-2.339 14.55.059 2.224 1.003 4.204 1.64 4.401 1.416.196-.223.652-2.041 1.013-4.04.806-4.466.027-4.877-10.391-5.478-5.122-.295-8.768.038-11.5 1.052m31.355 8.266c-2.087.321-2.747 1.08-3.131 3.6-.268 1.757-.378 3.319-.244 3.472.133.153 1.459-.185 2.946-.75 5.352-2.035 12.574-.853 12.574 2.057 0 .376-2.558 1.004-5.685 1.395C67.512 111.83 63 114.964 63 121.118c0 6.295 6.606 8.9 13.48 5.316 1.923-1.003 3.105-1.178 3.333-.494.195.583 2.086 1.06 4.203 1.06 2.801 0 3.991-.477 4.37-1.75C90.007 119.802 92 109.401 92 106.387c0-3.036-.45-3.677-3.468-4.938-3.24-1.354-10.575-1.681-16.677-.743m41.766.934c-2.134 1.155-3.067 1.257-3.602.391-.41-.664-2.373-1.031-4.54-.85l-3.818.319-2.791 12c-1.535 6.6-2.808 12.338-2.83 12.75-.022.412 1.884.75 4.235.75h4.274l1.862-8.75c1.932-9.078 3.344-11.25 7.312-11.25 3.428 0 3.688 1.977 1.508 11.469l-1.96 8.531h4.297c3.245 0 4.414-.429 4.773-1.75.261-.963 1.26-5.125 2.219-9.25.96-4.125 2.239-7.831 2.842-8.235 1.598-1.069 6.379-.928 7.082.21.332.536-.317 4.847-1.441 9.579-1.123 4.732-2.043 8.793-2.043 9.025 0 .232 1.951.421 4.335.421h4.334l2.171-9.75c2.657-11.931 2.665-12.745.16-15.25-2.583-2.583-7.55-2.572-11.813.027l-3.312 2.02-2.572-2.024c-3.049-2.398-6.72-2.53-10.682-.383m51.129-.068c-1.593.864-2.75 1.058-2.75.46 0-.568-1.976-1.032-4.392-1.032-3.735 0-4.468.336-4.905 2.25-.283 1.237-1.945 8.438-3.695 16l-3.18 13.75H28v5h201v-5h-37c-34.598 0-36.995-.114-36.93-1.75.141-3.494 1.344-5.231 2.93-4.229 2.24 1.416 7.725 1.173 10.931-.485 11.919-6.164 13.325-26.638 1.819-26.496-1.787.022-4.488.711-6 1.532m44.251-.449c-6.017 2.399-10.001 8.452-10.001 15.192 0 8.327 6.143 12.403 17.183 11.402 6.815-.618 8.433-1.647 9.035-5.749.24-1.632.344-2.968.231-2.968-.113 0-1.82.675-3.795 1.5-5.128 2.143-10.237 1.917-12.716-.562-3.531-3.531-2.009-4.401 8.642-4.938l9.92-.5.324-3.388c.497-5.211-.577-7.933-3.789-9.594-3.291-1.701-11.234-1.91-15.034-.395m3.464 4.838c-1.119.448-2.632 1.535-3.362 2.415-1.114 1.342-1.087 1.693.17 2.175 2.271.872 10.029.086 10.383-1.051.841-2.701-3.702-4.937-7.191-3.539m-49.923.945c-2.583 1.011-6.121 13.935-4.033 14.736 4.89 1.876 10.056-2.184 11.12-8.741.869-5.36-2.159-7.922-7.087-5.995M75 116.29c-1.375.693-2.644 2.261-2.82 3.485-.275 1.92.136 2.223 3 2.21 4.246-.02 5.499-.858 6.349-4.245.605-2.409.403-2.738-1.671-2.725-1.297.008-3.483.582-4.858 1.275m-23.728 33.921c-3.376 1.629-3.964 4.811-1.288 6.977 1.231.997 3.061 1.812 4.068 1.812 2.112 0 3.722 1.941 1.757 2.118-2.05.186-2.15.176-5.059-.509-2.277-.536-2.75-.314-2.75 1.292 0 4.329 11.263 3.81 13.278-.612 1.001-2.196.848-2.768-1.175-4.406-1.278-1.036-3.148-1.883-4.155-1.883-2.213 0-3.462-1.657-1.704-2.261.691-.237 2.493-.082 4.006.345 2.274.642 2.75.463 2.75-1.037 0-2.834-5.508-3.873-9.728-1.836m17.043-.242c-4.195 1.763-5.624 7.717-2.814 11.729 2.844 4.06 13.499 4.235 13.499.223 0-2.201-.068-2.223-3.185-1.049-2.536.956-6.815-.199-6.815-1.84 0-.572 2.229-1.032 5-1.032 4.556 0 5-.205 5-2.309 0-4.853-5.607-7.856-10.685-5.722m42.32 1.104C108.602 152.671 108 154.027 108 157c0 6.193 5.843 9.731 11.316 6.85 3.008-1.583 3.653-2.793 3.653-6.85 0-4.057-.645-5.267-3.653-6.85-3.196-1.682-5.709-1.415-8.681.923m60.68-1.104c-4.431 1.862-5.679 8.125-2.422 12.147 2.677 3.306 9.537 3.306 12.214 0 5.32-6.569-1.862-15.479-9.792-12.147m47.87-.105c-.723.459-2.41.624-3.75.368-2.396-.458-2.435-.35-2.435 6.651 0 6.387.2 7.117 1.948 7.117 1.644 0 1.995-.817 2.25-5.25.263-4.574.592-5.291 2.552-5.57 2.102-.298 2.25.047 2.25 5.25 0 5.275.133 5.57 2.5 5.57 2.386 0 2.5-.271 2.5-5.929 0-7.718-3.232-11.113-7.815-8.207M30 155.845c0 7.1 2.16 9.876 6.71 8.624 1.534-.422 4.027-.666 5.54-.543l2.75.225v-7.076c0-6.84-.081-7.075-2.448-7.075-2.248 0-2.472.429-2.75 5.25-.258 4.483-.594 5.25-2.302 5.25-1.708 0-2.044-.767-2.302-5.25-.278-4.821-.502-5.25-2.75-5.25-2.318 0-2.448.31-2.448 5.845m60-5.356c0 .27 1.184 3.448 2.632 7.064 2.161 5.398 2.433 7.009 1.521 9.01-1.017 2.234-.899 2.437 1.425 2.437 2.664 0 3.444-1.287 8.333-13.75l2.06-5.25h-2.445c-1.987 0-2.671.751-3.644 4-.659 2.2-1.506 4-1.882 4-.376 0-1.223-1.8-1.882-4-.976-3.258-1.655-4-3.658-4-1.353 0-2.46.22-2.46.489m37 5.44c0 7.008 1.793 9.62 5.908 8.604 1.426-.352 3.83-.609 5.342-.571 2.745.07 2.75.058 2.75-6.946 0-6.287-.202-7.016-1.948-7.016-1.644 0-1.995.817-2.25 5.25-.257 4.471-.616 5.295-2.422 5.552-2.341.335-3.343-1.912-3.366-7.552-.011-2.579-.427-3.25-2.014-3.25-1.775 0-2 .667-2 5.929m19 1.128c0 6.739.073 6.943 2.5 6.943 2.333 0 2.5-.333 2.5-5s.167-5 2.5-5c1.756 0 2.5-.545 2.5-1.829 0-1.514-.864-1.85-5-1.944l-5-.114v6.944m39.257-5.807c.26.688 1.22 3.838 2.135 7 1.526 5.272 1.902 5.75 4.525 5.75 2.472 0 2.949-.471 3.51-3.465.927-4.939 2.091-5.087 3.483-.441 1.052 3.513 1.54 3.988 3.818 3.717 2.136-.254 2.931-1.222 4.364-5.311 2.464-7.028 2.403-8.711-.298-8.32-1.684.244-2.48 1.387-3.36 4.82l-1.154 4.5-1.259-4.75c-1.05-3.963-1.648-4.75-3.609-4.75-1.939 0-2.6.833-3.771 4.75l-1.419 4.75-1.23-4.75c-1.052-4.065-1.588-4.75-3.718-4.75-1.575 0-2.315.459-2.017 1.25m-115.282 1.765c-2.03 1.255-.636 2.191 2.684 1.803 2.707-.316 2.744-.388.787-1.505-1.248-.713-2.61-.83-3.471-.298m44.018-.01c-1.72 1.062-1.72 6.928 0 7.99 2.928 1.81 5.799-1.925 4.536-5.903-.727-2.293-2.72-3.21-4.536-2.087m58.716.619c-1.477 1.477-.693 6.314 1.186 7.32 2.507 1.342 4.362-.846 3.927-4.634-.315-2.752-3.417-4.382-5.113-2.686" fill="#1976D2" fill-rule="evenodd"/><path fill-opacity=".408" d="M52.744 51.756 21 83.512l.025 43.994.025 43.994 31.474 31.75L83.998 235h88.514l31.744-31.756L236 171.488v-88l-31.756-31.744L172.488 20h-88L52.744 51.756m132.449 56.494c-2.308 10.037-4.196 18.588-4.195 19 .001.412 1.997.75 4.435.75 5.087 0 4.389 1.294 8.095-15a4734.261 4734.261 0 0 1 3.955-17.25l1.34-5.75h-9.434l-4.196 18.25M39.415 92.421c-6.124 2.667-9.118 9.528-6.385 14.634 1.226 2.293 5.467 4.607 11.994 6.545 5.317 1.579 6.705 3.528 4.255 5.978-2.375 2.375-12.289 1.53-16.229-1.383-3.259-2.409-3.39-2.325-4.883 3.131-1.031 3.765-.994 3.848 2.361 5.25 1.949.815 6.71 1.424 11.124 1.424 9.577 0 15.376-2.432 17.755-7.445 1.954-4.117 1.969-4.927.162-8.422-1.402-2.711-5.2-4.824-12.889-7.169-2.101-.641-4.064-1.801-4.362-2.577-1.719-4.481 8.181-6.011 15.054-2.328 2.113 1.133 4.041 1.861 4.284 1.618.243-.243.532-2.376.643-4.741.178-3.807-.085-4.381-2.299-5.018-4.286-1.232-17.331-.913-20.585.503m171.708 7.538c-7.19 1.789-12.369 8.195-12.53 15.5-.184 8.36 4.703 12.541 14.659 12.541 7.993 0 11.39-1.46 12.142-5.218.341-1.706.434-3.287.208-3.514-.227-.226-2.572.321-5.211 1.217-6.287 2.135-12.391.622-12.391-3.071 0-1.01 2.399-1.412 9.715-1.628l9.714-.286.837-3.549c2.078-8.809-6.321-14.685-17.143-11.992m-140.858.856c-.679.431-1.537 2.295-1.906 4.142-.637 3.182-.546 3.322 1.734 2.676 7.688-2.177 12.907-1.876 12.907.744 0 .9-1.973 1.544-6.025 1.968-7.399.773-11.469 2.776-13.458 6.622-2.007 3.882-1.917 5.255.556 8.398 1.62 2.061 2.943 2.635 6.065 2.635 2.197 0 4.893-.481 5.992-1.069 1.438-.77 2.38-.752 3.364.064.752.624 3.051.993 5.11.82l3.743-.315 2.305-10c2.86-12.409 2.862-12.077-.107-15.045-2.214-2.215-3.265-2.454-10.75-2.44-4.562.009-8.851.369-9.53.8m31.257.377c-.252.719-1.765 6.857-3.361 13.639-3.167 13.452-3.138 13.577 2.994 12.989l3.345-.32 2.347-9.692c2.237-9.24 2.487-9.722 5.349-10.351 4.757-1.045 5.16.358 2.873 9.991-1.138 4.79-2.069 9.124-2.069 9.631 0 .507 2.008.921 4.461.921 4.987 0 4.694.509 7.765-13.483 1.113-5.074 1.728-6.128 4.048-6.945 4.735-1.664 5.392.194 3.426 9.682-2.336 11.27-2.422 10.913 2.55 10.553l4.25-.307 2.168-8c2.769-10.219 2.923-15.655.503-17.845-2.494-2.258-8.979-2.098-12.634.311-2.94 1.938-2.977 1.938-4.789-.006-2.226-2.389-7.638-2.585-11.808-.429-2.232 1.154-2.897 1.216-2.7.25.366-1.802-8.091-2.373-8.718-.589m48.563 12.058c-1.698 7.287-3.368 14.713-3.711 16.5l-.624 3.25H27v5h203v-5h-75.233l.603-2.25c.331-1.238.609-2.504.616-2.814.008-.31 2.602-.383 5.764-.161 4.793.335 6.32.013 9.176-1.936 7.592-5.184 10.737-18.267 5.619-23.384-2.708-2.709-8.087-3.306-11.813-1.312-1.603.858-2.232.858-2.518 0-.209-.628-2.329-1.143-4.711-1.143h-4.331l-3.087 13.25m60.459-5.299c-1.846 2.04-1.832 2.049 3.374 2.049 4.439 0 5.179-.264 4.897-1.75-.502-2.651-5.964-2.848-8.271-.299m-49.262.248c-.93 1.154-3.282 10.364-3.282 12.85 0 1.749 5.596.976 7.799-1.077 2.501-2.33 3.499-5.491 3.029-9.601-.273-2.389-.846-2.922-3.413-3.172-1.697-.166-3.557.284-4.133 1m-83.583 7.767c-4.475.866-6.195 2.299-5.363 4.467.721 1.878 4.655 2.06 6.872.317 1.322-1.04 3.62-6.001 2.609-5.635-.174.063-2.027.446-4.118.851M30 155.878c0 4.287.471 7.264 1.25 7.905.688.566 4.063 1.026 7.5 1.023L45 164.8v-7.9c0-7.76-.044-7.9-2.5-7.9-2.358 0-2.5.307-2.5 5.393 0 4.007-.409 5.55-1.59 6.003-2.666 1.023-3.41-.276-3.41-5.955 0-5.137-.14-5.441-2.5-5.441-2.424 0-2.5.208-2.5 6.878m19.96-5.047c-3.595 2.912-2.07 6.766 3.3 8.34 3.829 1.121 3.978 1.276 1.539 1.597-1.485.195-3.622-.138-4.75-.742-1.804-.965-2.049-.806-2.049 1.332 0 2.709 1.628 3.642 6.359 3.642 7.549 0 10.598-7.382 3.939-9.535-4.954-1.601-5.272-2.816-.548-2.092 3.74.573 4.25.422 4.25-1.254 0-3.524-8.196-4.4-12.04-1.288m16.829-.468c-2.697 2.05-3.862 6.13-2.7 9.462C66.233 165.976 79 167.288 79 161.358c0-2.138-.245-2.297-2.049-1.332-2.548 1.364-7.157.899-7.707-.776-.296-.9 1.154-1.25 5.173-1.25 4.782 0 5.583-.268 5.583-1.865 0-1.026-.933-3.051-2.073-4.5-1.58-2.009-2.946-2.627-5.75-2.603-2.022.017-4.447.616-5.388 1.331M90 150.31c0 .721 1.112 4.149 2.472 7.618 1.803 4.6 2.209 6.8 1.5 8.124-1.615 3.018-1.128 4.099 1.694 3.764 2.326-.276 3.15-1.465 6.452-9.316 2.082-4.95 3.807-9.562 3.833-10.25.027-.687-1.058-1.25-2.411-1.25-2.003 0-2.682.742-3.658 4-1.405 4.688-2.399 5.06-3.354 1.256-.379-1.51-1.158-3.31-1.731-4-1.373-1.655-4.797-1.616-4.797.054m19.884.583c-3.306 2.677-3.306 9.537 0 12.214 5.402 4.374 14.116.605 14.116-6.107s-8.714-10.481-14.116-6.107m16.488-.421c-.927 2.416.15 11.247 1.582 12.972.913 1.1 2.923 1.449 7.4 1.283l6.146-.227V157c0-7.333-.056-7.5-2.5-7.5-2.303 0-2.539.433-3 5.5-.364 4-.909 5.5-2 5.5s-1.636-1.5-2-5.5c-.433-4.765-.801-5.543-2.754-5.82-1.373-.195-2.497.31-2.874 1.292M146 157c0 7.867.042 8 2.5 8 2.333 0 2.5-.333 2.5-5 0-3.252.437-5.053 1.25-5.152a61.66 61.66 0 0 1 2.737-.252c1.777-.119 2.608-3.401 1.214-4.795-.648-.648-1.708-.6-3.094.142-1.393.745-2.107.776-2.107.092 0-.569-1.125-1.035-2.5-1.035-2.458 0-2.5.133-2.5 8m23.174-5.686c-5.036 5.361-1.301 13.686 6.14 13.686 5 0 7.686-2.796 7.686-8 0-5.263-2.677-8-7.826-8-2.706 0-4.462.677-6 2.314M185 150.142c0 .628.927 4.256 2.06 8.061 1.937 6.503 2.222 6.9 4.75 6.608 2.21-.256 2.942-1.106 4.099-4.765l1.408-4.454 1.39 4.766c1.245 4.269 1.662 4.733 4.002 4.454 2.15-.257 2.911-1.199 4.293-5.312.924-2.75 1.993-6.269 2.376-7.82.648-2.629.507-2.798-2.091-2.5-2.403.276-2.913.921-3.703 4.685l-.916 4.364-1.609-4.364c-1.135-3.083-2.247-4.457-3.785-4.678-1.825-.263-2.4.454-3.561 4.433l-1.383 4.746-1.18-4.683c-1.008-4.005-1.539-4.683-3.664-4.683-1.367 0-2.486.514-2.486 1.142m27.366.346c-.258.672-.333 4.1-.167 7.617.286 6.074.426 6.395 2.801 6.395 2.303 0 2.539-.433 3-5.5.364-4 .909-5.5 2-5.5 1.125 0 1.575 1.439 1.8 5.75.279 5.354.469 5.75 2.75 5.75 2.363 0 2.45-.246 2.45-6.878 0-4.3-.471-7.268-1.256-7.92-1.78-1.476-12.792-1.242-13.378.286M69.5 154c-.351.567.49 1 1.941 1 1.407 0 2.559-.45 2.559-1s-.873-1-1.941-1-2.219.45-2.559 1m43.918.353c-1.112 2.897-.011 6.147 2.082 6.147 1.618 0 2-.667 2-3.486 0-2.528-.482-3.579-1.753-3.824-.964-.186-2.012.338-2.329 1.163M172.5 155c-.944 2.976.365 6 2.599 6 2.374 0 3.337-2.127 2.49-5.502-.766-3.051-4.173-3.384-5.089-.498" fill="#1976D2" fill-rule="evenodd"/></svg>